PathFileType	4	(X/Y/Z)	C:/Users/beibeiliu/ov580/test_trc\sequence.7_training_dense_right.trc
DataRate	CameraRate	NumFrames	NumMarkers	Units	OrigDataRate	OrigDataStartFrame	OrigNumFrames
120	120	16	19	mm	120	78	103
Frame#	Time	ThumbCMC			ThumbMCP			ThumbIP			ThumbTip			IndexMCP			IndexPIP			IndexTip			MiddleMCP			MiddlePIP			MiddleTip			RingMCP			RingPIP			RingTip			PinkyMCP			PinkyPIP			PinkyTip			BackHand1			BackHand2			BackHand3	
		X0	Y0	Z0	X1	Y1	Z1	X2	Y2	Z2	X3	Y3	Z3	X4	Y4	Z4	X5	Y5	Z5	X6	Y6	Z6	X7	Y7	Z7	X8	Y8	Z8	X9	Y9	Z9	X10	Y10	Z10	X11	Y11	Z11	X12	Y12	Z12	X13	Y13	Z13	X14	Y14	Z14	X15	Y15	Z15	X16	Y16	Z16	X17	Y17	Z17	X18	Y18	Z18	
77	0.641667	121.528	12.9556	41.0649	129.052	8.34319	17.6051	143.121	1.49191	1.80934	156.551	-0.829744	-12.6996	121.453	-29.2554	-11.454	106.643	-10.2869	-23.6417	99.453	5.76364	0.785685	99.8548	-32.2918	-9.05704	90.681	-7.8052	-19.611	89.5887	6.21721	10.6583	79.7182	-30.4436	-5.37226	80.2026	-5.72497	-7.46512	85.4848	6.13109	16.079	65.9614	-32.0829	7.46952	66.2532	-7.03129	2.07262	77.6426	2.38934	25.3476	90.4227	-32.3604	45.5843	86.4753	-16.8396	66.302	111.678	-15.5548	53.3096	
78	0.65	126.253	25.5677	40.3246	135.766	27.2585	16.8245	154.945	23.1001	-3.05609	164.89	21.6425	-16.5654	138.701	-14.6613	-9.84955	121.896	1.55726	-27.7022	108.987	12.7993	-1.93735	122.456	-23.7642	-10.0809	100.458	-4.88339	-21.7313	98.9884	9.93189	7.28751	101.799	-27.7116	-7.76578	88.431	-3.31341	-9.24301	93.2144	6.30214	15.9282	88.6331	-31.8522	-0.158499	79.945	-11.4886	-2.68853	88.9287	3.37046	18.2499	113	-28.9842	43.1255	106.173	-12.6189	65.8555	127.736	-6.2511	49.3154	
79	0.658333	129.216	37.4932	36.0719	137.854	45.0914	13.8293	147.442	47.5416	-2.20913	161.393	52.8433	-17.1474	151.825	11.3372	-19.5571	126.499	16.5584	-29.9303	116.586	27.0506	-4.3269	139.68	-3.75684	-17.0923	113.605	7.77496	-26.5374	109.203	18.5897	7.65549	125.003	-15.0366	-11.4892	102.903	4.26737	-14.2075	103.342	10.5787	14.187	110.633	-26.4629	-6.86187	100.01	-5.30891	-8.51124	98.2767	6.00269	17.3603	132.812	-16.9898	37.6351	123.728	-6.38646	58.4759	139.326	10.7856	45.515	
80	0.666667	124.591	50.5171	34.8112	129.226	62.266	9.2881	136.306	71.4712	-6.51577	140.874	85.9866	-16.8939	150.986	35.2527	-25.7218	124.28	37.8936	-34.4637	112.69	37.4519	-6.42395	142.224	18.4078	-25.2816	113.359	20.6164	-30.2292	107.782	28.2015	1.29905	134.871	3.41235	-20.1536	109.515	13.8073	-19.6777	107.64	19.2838	8.95151	128.2	-8.99638	-14.157	105.359	2.73784	-11.6228	107.887	9.83278	14.657	147.136	2.13274	28.5834	134.874	4.6891	51.0906	144.099	28.3433	39.4809	
81	0.675	112.404	61.9336	32.5065	108.184	74.2155	9.31786	109.938	88.5104	-6.32811	111.364	99.2919	-19.2164	134.049	65.13	-29.041	108.875	55.4992	-35.3802	101.555	48.5324	-5.56233	133.224	41.0921	-33.1149	104.752	33.9544	-29.7585	102.625	37.4789	0.444756	131.382	24.5448	-27.9719	104.063	26.7674	-20.4436	107.224	24.2145	8.08062	130.487	10.701	-21.6109	107.204	11.8494	-15.1279	108.051	19.4145	9.87691	149.402	24.33	21.9418	141.632	18.7258	46.0451	141.701	45.1163	33.7344	
82	0.683333	95.4488	72.4038	30.4952	85.6837	80.5319	8.93636	82.6119	93.1085	-9.25521	75.5184	105.718	-20.4844	109.983	75.9781	-33.4981	88.9121	61.7242	-37.4288	87.0531	51.8132	-10.7524	115.143	59.1012	-34.4249	89.9079	46.1887	-34.6933	93.6386	43.6882	1.92215	117.093	41.0405	-32.2103	94.2121	33.9135	-19.3247	100.542	34.3917	4.59743	125.688	28.0743	-25.0087	102.253	20.2708	-16.3362	104.091	28.4473	7.28082	144.353	46.448	10.2542	139.826	42.1681	37.3268	128.679	65.7266	26.0809	
83	0.691667	80.4966	71.5624	30.506	61.5876	79.0161	8.89486	53.0588	87.1986	-6.66315	41.9987	96.6856	-19.7165	85.395	78.8279	-34.4844	64.8141	56.5683	-34.7737	69.2918	52.9247	-4.65157	95.2733	61.5025	-37.2111	74.7536	40.9314	-32.0447	79.9011	43.7361	0.302266	101.818	48.6185	-31.6622	84.3533	31.9787	-21.0881	90.9306	42.3042	6.82708	109.013	33.975	-27.4048	92.2042	26.2821	-12.367	97.054	35.5219	8.22748	130.922	60.4768	5.91886	130.007	53.3797	35.1998	112.293	77.5802	22.9594	
84	0.7	62.9006	67.6319	30.1829	44.881	66.0653	9.60494	27.9361	70.7452	-6.8908	17.312	72.1288	-18.0997	55.7482	69.0604	-35.4397	50.5391	41.4011	-31.5406	57.442	42.9276	-2.60727	73.4511	55.6517	-35.3153	61.3303	28.2484	-24.6099	72.0205	38.6482	4.80264	82.734	42.1693	-32.5286	76.4513	22.4932	-15.0603	79.3493	39.7674	7.49673	101.94	36.0018	-26.2815	87.582	19.5708	-10.5331	87.8922	37.0764	8.37901	107.566	71.0798	0.578002	114.411	67.0643	28.492	91.3667	79.8636	17.4249	
85	0.708333	50.4805	60.7555	29.3877	31.3921	51.2996	13.5919	18.296	49.1892	-4.68693	1.46198	46.7243	-13.3666	43.9299	55.2063	-32.3653	40.6463	26.4556	-30.0408	49.329	29.128	0.416503	58.4225	42.238	-35.9573	57.5666	16.9855	-25.5838	63.0505	30.2402	7.78046	78.5045	32.693	-30.8886	68.9571	16.9933	-13.9576	76.014	31.6078	11.329	91.5314	30.3519	-24.5303	83.0698	16.3675	-8.39318	81.0887	36.9269	10.3856	93.3891	70.7617	1.83384	100.912	70.2179	29.876	76.1366	77.817	20.0258	
86	0.716667	41.033	55.676	31.3657	24.2784	40.8774	18.3277	8.7856	36.2717	-1.46342	-2.67077	29.132	-10.7656	34.3276	46.0591	-33.3068	35.0191	20.631	-32.4578	46.2776	16.0704	-0.730298	54.0938	39.8223	-36.7749	53.31	10.2404	-27.5693	56.2186	18.2348	5.2816	71.8596	30.1403	-32.7296	64.2113	11.7435	-14.9746	64.7926	24.2877	10.2086	86.5944	32.3735	-25.2121	76.3488	14.5494	-11.7847	72.0034	25.6113	9.67106	83.26	70.0373	-0.610817	91.422	76.3758	27.0103	62.6312	77.8157	16.5112	
87	0.725	37.4792	52.6441	35.3891	20.0262	37.1279	15.241	6.22882	28.1317	-1.65737	-2.86775	19.7561	-17.537	30.2393	45.2137	-33.1492	28.6462	19.4804	-37.6887	32.7524	1.38956	-13.4759	46.7356	38.472	-39.2699	44.273	10.6681	-37.0683	52.1111	0.463336	-7.82324	65.6239	33.2995	-35.5476	62.8538	7.88975	-25.6107	59.7905	7.07516	0.740782	85.3189	32.7852	-27.6939	74.5899	12.8467	-20.5964	68.2975	13.5311	5.23241	79.0642	71.2578	1.85276	83.3022	73.8065	26.1413	56.9789	74.4823	20.4949	
88	0.733333	34.9275	50.1896	37.7399	15.6573	32.7336	19.4018	8.78019	24.5934	0.131262	3.42146	14.6797	-18.9217	28.4549	45.1687	-31.5714	25.3701	17.7843	-43.3509	26.1785	-6.53491	-26.9358	47.9358	39.5447	-41.2575	43.2159	13.7301	-48.2191	43.1487	-11.8874	-26.4214	61.1119	33.7795	-37.304	57.1742	6.97076	-36.9014	56.4043	-8.62667	-13.4322	82.2256	35.1007	-28.3347	75.2575	9.71585	-30.6251	62.3794	-1.15782	-9.50379	72.6853	65.5073	0.948245	78.3937	71.7068	26.1913	52.4368	72.6264	19.7423	
89	0.741667	31.7889	49.7128	33.3961	15.3569	31.8524	19.8937	5.13359	22.0583	-0.881307	3.30631	11.9855	-15.6262	24.7327	44.8835	-30.2951	17.1948	24.9996	-44.2484	21.1541	-5.58533	-45.6749	46.2652	41.5755	-39.1865	38.1293	16.9113	-54.4536	35.8137	-13.1223	-47.1757	61.3614	36.0475	-38.4892	59.3266	13.4007	-47.1117	49.4248	-9.65086	-39.1886	85.4035	33.8344	-28.5001	77.8677	16.7471	-39.4839	67.2108	-4.532	-36.2276	75.7172	63.6418	5.14011	80.9203	68.3566	27.1782	49.3663	71.7311	18.3973	
90	0.75	30.4142	49.1758	37.2919	12.01	32.5577	18.4007	3.37208	23.1303	-2.87225	-1.69713	11.3769	-17.8504	20.5848	47.4761	-30.5738	18.8437	30.0573	-46.4841	12.9749	6.33307	-54.887	46.103	45.4582	-38.0594	36.958	25.5612	-57.3539	34.2477	-0.148899	-65.9662	65.1058	39.7386	-36.6095	57.0433	17.4323	-53.5701	50.5736	-5.37686	-56.8366	84.173	35.9701	-26.5303	83.1296	19.2018	-42.2718	73.0803	3.6235	-49.3231	71.9944	62.7214	3.74891	77.7662	67.6889	33.6548	48.8867	71.744	20.5348	
91	0.758333	33.7331	47.7175	36.802	11.5568	32.7513	18.3433	6.21178	23.0611	2.57908	-3.06697	13.5616	-15.787	24.9307	50.1946	-29.872	14.9107	34.4992	-49.4602	10.6174	15.3235	-61.801	45.2942	47.0432	-38.5504	37.1861	30.5463	-61.7847	32.9292	9.80721	-75.6054	63.2589	41.3529	-37.4672	60.1993	23.6644	-57.6973	51.0919	7.84137	-66.2038	87.7638	35.2118	-25.686	83.0546	22.4152	-44.369	78.0836	11.3137	-56.3867	74.2941	61.3788	4.93844	81.2793	64.4907	33.1549	51.6488	68.3437	25.2934	
92	0.766667	31.6759	44.7156	37.1317	16.6201	29.8573	20.3368	3.69216	21.2211	3.39288	0.636872	13.1938	-15.5075	22.6636	49.9078	-26.9911	14.3167	37.8821	-49.3425	11.141	20.6864	-64.5102	45.4049	47.7123	-37.0853	36.5144	34.6886	-59.8151	37.5022	17.6425	-77.6695	62.7504	40.7184	-35.1987	61.546	29.6687	-53.7193	54.4134	9.6286	-72.3587	87.017	33.4643	-27.9867	83.8442	26.7073	-40.4148	80.3988	14.9832	-59.6332	75.7658	58.3265	8.30385	83.4811	60.8664	35.8038	52.7978	63.6598	26.6013	
